<svg width="49" height="49" viewBox="0 0 49 49" fill="none" xmlns="http://www.w3.org/2000/svg">
<path d="M48.3233 30.9732C47.6577 30.3078 46.6546 30.1124 45.7882 30.4794C43.2117 31.5707 40.4795 32.1241 37.6669 32.1241C32.1131 32.1241 26.8921 29.9615 22.9652 26.0345C16.9436 20.013 15.199 11.0545 18.5206 3.21176C18.8876 2.34498 18.6922 1.3423 18.0265 0.676874C17.3611 0.011259 16.3581 -0.183688 15.4917 0.183333C12.4775 1.4603 9.76976 3.28727 7.44369 5.61353C2.64294 10.4141 -0.000574125 16.7966 9.35284e-08 23.5855C0.000574312 30.3735 2.64428 36.7552 7.44427 41.5554C12.245 46.3563 18.6279 49.0002 25.4168 49.0002C32.2047 49.0002 38.5865 46.3566 43.3867 41.5565C45.7131 39.2301 47.54 36.5225 48.8169 33.5085C49.184 32.6417 48.9888 31.6389 48.3233 30.9732Z" fill="#1049B3"/>
</svg>
