<svg width="52" height="52" viewBox="0 0 52 52" fill="none" xmlns="http://www.w3.org/2000/svg">
<path d="M26.6338 10.3164C18.9997 10.3164 12.7888 16.5272 12.7888 24.1613C12.7888 27.2894 13.8135 30.2432 15.7521 32.7026C16.1236 33.1741 16.5237 33.6383 16.9104 34.0873C18.0654 35.4275 19.156 36.6935 19.5442 38.1173C19.5526 38.148 19.6257 38.4469 19.6149 39.4647L19.613 39.6118C19.6013 40.438 19.5857 41.5692 20.4222 42.4176C20.995 42.9986 21.7978 43.2812 22.8771 43.2812H30.3647C31.5301 43.2812 32.3679 42.996 32.926 42.4094C33.6811 41.616 33.6305 40.5912 33.5969 39.913C33.5909 39.793 33.5846 39.672 33.5831 39.5515C33.571 38.5326 33.6472 38.2454 33.6504 38.2333C34.0447 36.8097 35.3224 35.3083 36.4499 33.984C36.826 33.542 37.1813 33.1246 37.5123 32.705C39.4516 30.2452 40.4766 27.2908 40.4766 24.1615C40.4768 16.5274 34.2669 10.3164 26.6338 10.3164ZM35.3224 30.9779C35.0236 31.3565 34.6849 31.7547 34.3262 32.1762C33.0117 33.7207 31.5217 35.4712 30.963 37.4885C30.8833 37.7759 30.7793 38.3056 30.7948 39.5844C30.7966 39.7397 30.8039 39.8958 30.8117 40.0505C30.8176 40.1727 30.8256 40.3337 30.8249 40.4612C30.7267 40.4772 30.5785 40.4921 30.3647 40.4921H22.8771C22.6399 40.4921 22.5012 40.467 22.43 40.448C22.3932 40.2664 22.3984 39.889 22.4017 39.651L22.404 39.4941C22.4173 38.2076 22.3142 37.674 22.2353 37.3842C21.6813 35.3509 20.2692 33.7123 19.0235 32.2668C18.6393 31.8209 18.2762 31.3996 17.9427 30.9761C16.3958 29.0133 15.5781 26.6567 15.5781 24.1612C15.5781 18.0648 20.5378 13.1051 26.6341 13.1051C32.7293 13.1051 37.6883 18.0648 37.6883 24.1612C37.688 26.658 36.8701 29.0153 35.3224 30.9779Z" fill="white"/>
<path d="M30.0764 44.541H23.1896C21.7031 44.541 20.4937 45.7505 20.4937 47.2369V49.3039C20.4937 50.7903 21.7031 51.9998 23.1896 51.9998H30.0764C31.5629 51.9998 32.7724 50.7903 32.7724 49.3039V47.2369C32.7724 45.7505 31.5629 44.541 30.0764 44.541ZM29.9835 49.2111H23.2825V47.3301H29.9835V49.2111Z" fill="white"/>
<path d="M26.6328 8.51148C27.4031 8.51148 28.0273 7.88733 28.0273 7.11704V1.39444C28.0273 0.624152 27.4031 0 26.6328 0C25.8626 0 25.2384 0.624152 25.2384 1.39444V7.11704C25.2384 7.88733 25.8627 8.51148 26.6328 8.51148Z" fill="white"/>
<path d="M44.9785 6.4325C44.4471 5.87565 43.5643 5.85501 43.0069 6.38639L38.7734 10.4265C38.2162 10.9581 38.1957 11.8409 38.7273 12.3981C39.0013 12.6852 39.3684 12.8298 39.7363 12.8298C40.0821 12.8298 40.4289 12.7019 40.6989 12.4442L44.9324 8.40387C45.4896 7.87231 45.5101 6.98953 44.9785 6.4325Z" fill="white"/>
<path d="M49.1351 20.3774C49.1344 20.3774 49.1336 20.3774 49.1329 20.3774L43.6832 20.3862C42.9129 20.3875 42.2897 21.0127 42.291 21.7829C42.2923 22.5524 42.9163 23.1751 43.6855 23.1751C43.6862 23.1751 43.6869 23.1751 43.6877 23.1751L49.1373 23.1663C49.9076 23.165 50.5308 22.5398 50.5295 21.7697C50.5284 21.0001 49.9043 20.3774 49.1351 20.3774Z" fill="white"/>
<path d="M13.8303 12.0262C14.3618 11.4691 14.3414 10.5865 13.7842 10.0546L9.55065 6.01445C8.99399 5.48308 8.11122 5.50334 7.5791 6.06056C7.04754 6.6176 7.06799 7.50018 7.62521 8.03212L11.8587 12.0725C12.1287 12.3302 12.4751 12.4581 12.8213 12.4581C13.189 12.4579 13.5562 12.3132 13.8303 12.0262Z" fill="white"/>
<path d="M8.31624 20.3862L2.86677 20.3774C2.86602 20.3774 2.86528 20.3774 2.86454 20.3774C2.09536 20.3774 1.4714 21.0005 1.47009 21.7697C1.46879 22.5398 2.0922 23.165 2.8623 23.1663L8.31178 23.1751C8.31252 23.1751 8.31327 23.1751 8.31401 23.1751C9.08318 23.1751 9.70715 22.552 9.70845 21.7829C9.70994 21.0127 9.08653 20.3873 8.31624 20.3862Z" fill="white"/>
</svg>
