<svg width="29" height="31" viewBox="0 0 29 31" fill="none" xmlns="http://www.w3.org/2000/svg">
<path d="M18.1904 26.9405C18.1904 27.3479 17.8597 27.6786 17.4523 27.6786H11.5475C11.1401 27.6786 10.8094 27.3479 10.8094 26.9405C10.8094 26.533 11.1401 26.2023 11.5475 26.2023H17.4523C17.8597 26.2024 18.1904 26.5331 18.1904 26.9405ZM17.4523 28.0476H11.5475C11.0618 28.0476 10.6858 28.5167 10.8474 29.0264C10.9449 29.3337 11.256 29.5238 11.5785 29.5238H11.5896C12.0159 29.5238 12.4056 29.7648 12.5964 30.146L12.6041 30.1616C12.8614 30.6752 13.3865 31 13.9611 31H15.0387C15.6134 31 16.1385 30.6752 16.3954 30.1616L16.4031 30.146C16.594 29.7648 16.9836 29.5238 17.4099 29.5238H17.4209C17.7435 29.5238 18.0546 29.3337 18.152 29.0264C18.314 28.5167 17.9379 28.0476 17.4523 28.0476ZM14.4999 4.42857C14.9074 4.42857 15.238 4.09789 15.238 3.69048V0.738095C15.238 0.330678 14.9074 0 14.4999 0C14.0925 0 13.7618 0.330678 13.7618 0.738095V3.69048C13.7618 4.09789 14.0925 4.42857 14.4999 4.42857ZM6.6713 7.23887C6.81523 7.38318 7.0042 7.45514 7.19312 7.45514C7.38209 7.45514 7.57101 7.38318 7.71494 7.23887C8.00318 6.95063 8.00318 6.48341 7.71494 6.19522L5.62727 4.1075C5.33941 3.81926 4.87143 3.81926 4.58363 4.1075C4.29539 4.39574 4.29539 4.86291 4.58363 5.15114L6.6713 7.23887ZM4.90464 14.0238C4.90464 13.6164 4.57397 13.2857 4.16655 13.2857H1.21417C0.806752 13.2857 0.476074 13.6164 0.476074 14.0238C0.476074 14.4312 0.806752 14.7619 1.21417 14.7619H4.16655C4.57402 14.7619 4.90464 14.4312 4.90464 14.0238ZM6.6713 20.8088L4.58363 22.8965C4.29539 23.1847 4.29539 23.6519 4.58363 23.9401C4.72756 24.0844 4.91648 24.1563 5.10545 24.1563C5.29437 24.1563 5.48334 24.0844 5.62727 23.9401L7.71494 21.8524C8.00318 21.5642 8.00318 21.097 7.71494 20.8088C7.42708 20.5205 6.95915 20.5205 6.6713 20.8088ZM22.3285 20.8088C22.0403 20.5205 21.5731 20.5205 21.2849 20.8088C20.9967 21.097 20.9966 21.5642 21.2849 21.8524L23.3726 23.9401C23.5169 24.0844 23.7055 24.1563 23.8944 24.1563C24.0833 24.1563 24.2719 24.0844 24.4162 23.9401C24.7045 23.6519 24.7045 23.1847 24.4162 22.8965L22.3285 20.8088ZM27.7856 13.2857H24.8332C24.4258 13.2857 24.0951 13.6164 24.0951 14.0238C24.0951 14.4312 24.4258 14.7619 24.8332 14.7619H27.7856C28.193 14.7619 28.5237 14.4312 28.5237 14.0238C28.5237 13.6164 28.193 13.2857 27.7856 13.2857ZM21.8066 7.45514C21.9956 7.45514 22.1842 7.38318 22.3285 7.23887L24.4162 5.15114C24.7044 4.86291 24.7044 4.39574 24.4162 4.1075C24.128 3.81926 23.6607 3.81926 23.3725 4.1075L21.2848 6.19522C20.9966 6.48346 20.9966 6.95063 21.2848 7.23887C21.4288 7.38318 21.6177 7.45514 21.8066 7.45514ZM18.1904 25.0952C18.1904 25.5027 17.8597 25.8333 17.4523 25.8333H11.5475C11.1401 25.8333 10.8094 25.5027 10.8094 25.0952C10.8094 24.7022 11.1176 24.3837 11.5051 24.3615C11.0456 20.2083 6.74988 19.2831 6.74988 14.3929C6.74988 10.1127 10.2197 6.64286 14.4999 6.64286C18.7801 6.64286 22.2499 10.1127 22.2499 14.3929C22.2499 19.2831 17.9542 20.2083 17.4947 24.3616C17.8822 24.3837 18.1904 24.7022 18.1904 25.0952Z" fill="#33538F"/>
</svg>
