<svg width="24" height="24" viewBox="0 0 24 24" fill="none" xmlns="http://www.w3.org/2000/svg">
<path d="M23 0.043457H0.999979C0.470903 0.043457 0.043457 0.470903 0.043457 0.999979V23C0.043457 23.5291 0.470903 23.9565 0.999979 23.9565H23C23.5291 23.9565 23.9565 23.5291 23.9565 23V0.999979C23.9565 0.470903 23.5291 0.043457 23 0.043457ZM20.238 7.02308H18.328C16.8304 7.02308 16.5405 7.73449 16.5405 8.78069V11.0853H20.1155L19.6492 14.6932H16.5405V23.9565H12.813V14.6962H9.69536V11.0853H12.813V8.42498C12.813 5.33721 14.6992 3.65433 17.4551 3.65433C18.7763 3.65433 19.9092 3.75297 20.241 3.79781V7.02308H20.238Z" fill="white"/>
</svg>
