<svg xmlns="http://www.w3.org/2000/svg" width="135" height="135" fill="#1049b3" xmlns:v="https://vecta.io/nano"><path d="M102.339 87.097h21.774c3.601 0 6.532-2.931 6.532-6.532v-9.11c2.528-.901 4.355-3.297 4.355-6.132 0-3.601-2.931-6.532-6.532-6.532s-6.533 2.931-6.533 6.532c0 2.835 1.827 5.23 4.355 6.132v9.11a2.18 2.18 0 0 1-2.177 2.177h-21.774a6.54 6.54 0 0 0-6.532 6.532v41.371h-4.355V78.387a2.18 2.18 0 0 1 2.177-2.177h15.242c3.601 0 6.532-2.931 6.532-6.532v-6.933c2.528-.901 4.355-3.297 4.355-6.132a6.54 6.54 0 0 0-6.532-6.532 6.54 6.54 0 0 0-6.532 6.532c0 2.835 1.826 5.23 4.354 6.132v6.933a2.18 2.18 0 0 1-2.177 2.177H93.629c-3.601 0-6.532 2.931-6.532 6.532v52.258h-4.355v-17.419h-4.355v17.419h-4.355v-8.71h-4.355v8.71h-4.355v-8.71h-4.355v8.71h-4.355v-17.419h-4.355v17.419h-4.355V74.032c0-3.601-2.931-6.532-6.532-6.532H23.952a2.18 2.18 0 0 1-2.177-2.177V49.68c2.528-.901 4.355-3.297 4.355-6.132a6.54 6.54 0 0 0-6.532-6.532c-3.601 0-6.532 2.931-6.532 6.532 0 2.835 1.827 5.23 4.355 6.132v15.643c0 3.601 2.931 6.532 6.532 6.532h17.419a2.18 2.18 0 0 1 2.177 2.177v56.613h-4.355V84.919c0-3.601-2.931-6.532-6.532-6.532H10.887A2.18 2.18 0 0 1 8.71 76.21V60.567c2.528-.902 4.355-3.297 4.355-6.132 0-3.601-2.931-6.532-6.532-6.532S0 50.834 0 54.436c0 2.835 1.827 5.23 4.355 6.132V76.21c0 3.601 2.931 6.532 6.532 6.532h21.774a2.18 2.18 0 0 1 2.177 2.177v45.726H8.71V135h117.58v-4.355h-26.129V89.274a2.18 2.18 0 0 1 2.178-2.177zm26.129-23.952a2.18 2.18 0 0 1 2.177 2.177 2.18 2.18 0 0 1-2.177 2.177 2.18 2.18 0 0 1-2.178-2.177 2.18 2.18 0 0 1 2.178-2.177zm-15.242-8.71a2.18 2.18 0 0 1 2.177 2.177 2.18 2.18 0 0 1-2.177 2.177 2.18 2.18 0 0 1-2.178-2.177 2.18 2.18 0 0 1 2.178-2.177zm-93.629-8.71a2.18 2.18 0 0 1-2.177-2.177 2.18 2.18 0 0 1 2.177-2.177 2.18 2.18 0 0 1 2.177 2.177 2.18 2.18 0 0 1-2.177 2.177zM6.532 56.613a2.18 2.18 0 0 1-2.177-2.177 2.18 2.18 0 0 1 2.177-2.177 2.18 2.18 0 0 1 2.177 2.177 2.18 2.18 0 0 1-2.177 2.177zm43.296-26.406l-2.343 2.341 9.237 9.241 2.345-2.343c.618.296 1.252.557 1.901.786v3.316h13.065v-3.314c.649-.229 1.282-.492 1.901-.786l2.345 2.343 9.237-9.241-2.343-2.341c.296-.618.557-1.252.786-1.901h3.316V15.242H85.96a19.59 19.59 0 0 0-.786-1.901l2.343-2.345-9.239-9.237-2.345 2.343a19.64 19.64 0 0 0-1.901-.788V0H60.968v3.314a19.6 19.6 0 0 0-1.901.786l-2.345-2.341-9.237 9.237 2.343 2.345a19.63 19.63 0 0 0-.788 1.901h-3.314v13.065h3.314a19.62 19.62 0 0 0 .788 1.901zm.253-10.61h2.256l.42-1.633a15.15 15.15 0 0 1 1.624-3.917l.858-1.454-1.596-1.596 3.079-3.079 1.596 1.596 1.454-.858a15.15 15.15 0 0 1 3.917-1.624l1.633-.42V4.355h4.355v2.256l1.633.42a15.15 15.15 0 0 1 3.917 1.624l1.454.858 1.596-1.596 3.079 3.079-1.596 1.596.858 1.454a15.15 15.15 0 0 1 1.624 3.917l.42 1.633h2.256v4.355h-2.256l-.42 1.633a15.15 15.15 0 0 1-1.624 3.917l-.86 1.454 1.598 1.596-3.079 3.079-1.596-1.596-1.454.858a15.15 15.15 0 0 1-3.917 1.624l-1.633.42v2.256h-4.355v-2.256l-1.633-.42a15.17 15.17 0 0 1-3.917-1.624l-1.454-.858-1.596 1.596-3.079-3.079 1.598-1.596-.86-1.454a15.15 15.15 0 0 1-1.624-3.917l-.42-1.633h-2.256v-4.355zM67.5 32.661c6.003 0 10.887-4.884 10.887-10.887S73.503 10.887 67.5 10.887s-10.887 4.884-10.887 10.887S61.497 32.661 67.5 32.661zm0-17.419c3.601 0 6.532 2.931 6.532 6.532s-2.931 6.532-6.532 6.532-6.532-2.931-6.532-6.532 2.931-6.532 6.532-6.532zm-2.177 32.661h-4.355v30.484h4.355V47.903zm8.709 0h-4.355v30.484h4.355V47.903zm-43.548-17.82v24.352c0 3.601 2.931 6.532 6.532 6.532H50.08a2.18 2.18 0 0 1 2.177 2.177v23.952h4.355V63.145c0-3.601-2.931-6.532-6.532-6.532H37.016a2.18 2.18 0 0 1-2.177-2.177V30.083c2.528-.901 4.355-3.297 4.355-6.132 0-3.601-2.931-6.532-6.532-6.532s-6.532 2.931-6.532 6.532c0 2.835 1.827 5.23 4.355 6.132zm2.177-8.309a2.18 2.18 0 0 1 2.177 2.177 2.18 2.18 0 0 1-2.177 2.177 2.18 2.18 0 0 1-2.177-2.177 2.18 2.18 0 0 1 2.177-2.177z"/><path d="M97.984 40.971v17.82a2.18 2.18 0 0 1-2.177 2.177H84.919c-3.601 0-6.532 2.931-6.532 6.532v19.597h4.355V67.5a2.18 2.18 0 0 1 2.177-2.177h10.887c3.602 0 6.533-2.931 6.533-6.532v-17.82c2.528-.901 4.354-3.297 4.354-6.132a6.54 6.54 0 0 0-6.532-6.532c-3.601 0-6.532 2.931-6.532 6.532 0 2.835 1.827 5.23 4.355 6.132zm2.177-8.309a2.18 2.18 0 0 1 2.178 2.177 2.18 2.18 0 0 1-2.178 2.177 2.18 2.18 0 0 1-2.177-2.177 2.18 2.18 0 0 1 2.177-2.177zM78.387 95.807v-1.089a7.63 7.63 0 0 0-7.621-7.621h-1.089v-4.355h-4.355v4.355h-1.089a7.63 7.63 0 0 0-7.621 7.621 7.63 7.63 0 0 0 7.621 7.621h6.532a3.27 3.27 0 0 1 3.266 3.266 3.27 3.27 0 0 1-3.266 3.266h-6.532a3.27 3.27 0 0 1-3.266-3.266v-1.089h-4.355v1.089a7.63 7.63 0 0 0 7.621 7.621h1.089v4.355h4.355v-4.355h1.089a7.63 7.63 0 0 0 7.621-7.621 7.63 7.63 0 0 0-7.621-7.621h-6.532a3.27 3.27 0 0 1-3.266-3.266 3.27 3.27 0 0 1 3.266-3.266h6.532a3.27 3.27 0 0 1 3.266 3.266v1.089h4.355zM135 130.645h-4.355V135H135v-4.355zm-130.645 0H0V135h4.355v-4.355z"/></svg>