<svg width="24" height="24" viewBox="0 0 24 24" fill="none" xmlns="http://www.w3.org/2000/svg">
<path d="M12 9.11517C11.4349 9.11539 10.8825 9.28477 10.4128 9.60191C9.94298 9.91904 9.57689 10.3697 9.36078 10.8969C9.14466 11.424 9.08823 12.0041 9.19861 12.5636C9.30899 13.1232 9.58122 13.6372 9.98089 14.0405C10.3806 14.4439 10.8897 14.7185 11.444 14.8298C11.9983 14.941 12.5728 14.8838 13.0948 14.6654C13.6169 14.447 14.0631 14.0773 14.3771 13.6028C14.691 13.1284 14.8586 12.5707 14.8586 12.0002C14.858 11.235 14.5566 10.5014 14.0206 9.96042C13.4846 9.41947 12.7579 9.11546 12 9.11517ZM18.6809 6.89763C18.5354 6.52543 18.3158 6.18737 18.0355 5.90444C17.7553 5.6215 17.4204 5.39972 17.0518 5.25285C15.9268 4.80448 13.2482 4.90508 12 4.90508C10.7518 4.90508 8.07589 4.80069 6.94768 5.25285C6.57902 5.39972 6.24419 5.6215 5.96395 5.90444C5.68371 6.18737 5.46404 6.52543 5.31857 6.89763C4.875 8.03344 4.97411 10.7405 4.97411 11.9996C4.97411 13.2587 4.875 15.9625 5.32071 17.1021C5.46618 17.4743 5.68585 17.8124 5.96609 18.0953C6.24633 18.3783 6.58117 18.6 6.94982 18.7469C8.07482 19.1953 10.7534 19.0947 12.0021 19.0947C13.2509 19.0947 15.9257 19.1991 17.0539 18.7469C17.4226 18.6 17.7574 18.3783 18.0377 18.0953C18.3179 17.8124 18.5376 17.4743 18.683 17.1021C19.1304 15.9663 19.0275 13.2593 19.0275 12.0002C19.0275 10.741 19.1304 8.03777 18.683 6.89817L18.6809 6.89763ZM12 16.4352C11.1312 16.4352 10.2819 16.1751 9.55946 15.6878C8.83706 15.2005 8.27401 14.5078 7.94153 13.6974C7.60904 12.887 7.52205 11.9952 7.69155 11.1349C7.86105 10.2746 8.27943 9.48432 8.89378 8.86406C9.50813 8.2438 10.2909 7.8214 11.143 7.65027C11.9951 7.47914 12.8784 7.56697 13.6811 7.90266C14.4838 8.23834 15.1698 8.8068 15.6525 9.53614C16.1352 10.2655 16.3929 11.123 16.3929 12.0002C16.3936 12.5828 16.2804 13.1598 16.0599 13.6982C15.8394 14.2366 15.5158 14.7258 15.1078 15.1378C14.6997 15.5498 14.2152 15.8765 13.6819 16.0991C13.1486 16.3217 12.5771 16.436 12 16.4352ZM16.5739 8.41421C16.3711 8.41432 16.1728 8.3537 16.0041 8.24001C15.8354 8.12632 15.7039 7.96468 15.6262 7.77553C15.5486 7.58638 15.5282 7.37822 15.5677 7.17737C15.6072 6.97652 15.7048 6.79201 15.8482 6.64718C15.9915 6.50235 16.1742 6.4037 16.3732 6.36371C16.5721 6.32372 16.7783 6.34419 16.9657 6.42253C17.153 6.50087 17.3132 6.63355 17.4259 6.80381C17.5386 6.97406 17.5988 7.17423 17.5988 7.379C17.5993 7.51498 17.5733 7.64973 17.5221 7.77553C17.471 7.90133 17.3958 8.0157 17.3008 8.11208C17.2058 8.20846 17.0928 8.28495 16.9685 8.33717C16.8441 8.38939 16.7108 8.41631 16.5761 8.41638L16.5739 8.41421ZM21.4286 -0.115234H2.57143C1.88944 -0.115234 1.23539 0.158288 0.753154 0.645162C0.270918 1.13203 0 1.79238 0 2.48092L0 21.5194C0 22.2079 0.270918 22.8683 0.753154 23.3551C1.23539 23.842 1.88944 24.1155 2.57143 24.1155H21.4286C22.1106 24.1155 22.7646 23.842 23.2468 23.3551C23.7291 22.8683 24 22.2079 24 21.5194V2.48092C24 1.79238 23.7291 1.13203 23.2468 0.645162C22.7646 0.158288 22.1106 -0.115234 21.4286 -0.115234ZM20.5114 15.5699C20.4423 16.9561 20.1289 18.1844 19.1266 19.1937C18.1243 20.2029 16.9088 20.5258 15.5373 20.5918C14.1225 20.6724 9.88071 20.6724 8.46589 20.5918C7.09286 20.522 5.88054 20.2051 4.87661 19.1937C3.87268 18.1822 3.55714 16.9534 3.49179 15.5699C3.41196 14.1409 3.41196 9.85778 3.49179 8.43044C3.56089 7.0442 3.87054 5.8159 4.87661 4.80664C5.88268 3.79739 7.09821 3.47828 8.46589 3.41229C9.88071 3.3317 14.1225 3.3317 15.5373 3.41229C16.9104 3.48206 18.1264 3.79901 19.1266 4.81043C20.1268 5.82185 20.4461 7.05069 20.5114 8.43693C20.5913 9.86049 20.5913 14.1398 20.5114 15.5699Z" fill="white"/>
</svg>
