<svg width="18" height="18" viewBox="0 0 18 18" fill="none" xmlns="http://www.w3.org/2000/svg">
<path d="M1.5 9C1.5 13.1422 4.85775 16.5 9 16.5C13.1422 16.5 16.5 13.1422 16.5 9C16.5 4.85775 13.1422 1.5 9 1.5C4.85775 1.5 1.5 4.85775 1.5 9Z" stroke="black" stroke-linecap="round" stroke-linejoin="round"/>
<path d="M9.74997 1.53751C9.74997 1.53751 12 4.50001 12 9.00001C12 13.5 9.74997 16.4625 9.74997 16.4625M8.24997 16.4625C8.24997 16.4625 5.99997 13.5 5.99997 9.00001C5.99997 4.50001 8.24997 1.53751 8.24997 1.53751M1.97247 11.625H16.0275M1.97247 6.37501H16.0275" stroke="black" stroke-linecap="round" stroke-linejoin="round"/>
</svg>
