<svg width="24" height="24" viewBox="0 0 24 24" fill="none" xmlns="http://www.w3.org/2000/svg">
<path fill-rule="evenodd" clip-rule="evenodd" d="M0.0833133 2.07467C0.0833133 1.54658 0.293096 1.04011 0.666512 0.666698C1.03993 0.293282 1.54639 0.0834987 2.07448 0.0834987H21.9233C22.185 0.0830713 22.4442 0.134267 22.6861 0.234154C22.928 0.334042 23.1478 0.480659 23.333 0.665613C23.5182 0.850567 23.665 1.07022 23.7652 1.31201C23.8653 1.55379 23.9168 1.81296 23.9166 2.07467V21.9235C23.9169 22.1853 23.8656 22.4445 23.7656 22.6864C23.6656 22.9283 23.5189 23.1481 23.3338 23.3333C23.1488 23.5184 22.9291 23.6652 22.6872 23.7654C22.4454 23.8655 22.1862 23.917 21.9244 23.9168H2.07448C1.81291 23.9168 1.55389 23.8653 1.31224 23.7652C1.07059 23.665 0.85104 23.5183 0.666129 23.3333C0.481218 23.1482 0.334573 22.9286 0.234571 22.6869C0.134569 22.4452 0.083171 22.1862 0.0833133 21.9246V2.07467ZM9.51698 9.1705H12.7442V10.7912C13.2101 9.8595 14.4017 9.021 16.1925 9.021C19.6256 9.021 20.4391 10.8767 20.4391 14.2817V20.5888H16.9649V15.0573C16.9649 13.1182 16.4991 12.024 15.3161 12.024C13.6748 12.024 12.9923 13.2037 12.9923 15.0573V20.5888H9.51698V9.1705ZM3.55865 20.4404H7.03398V9.021H3.55865V20.4393V20.4404ZM7.53123 5.2965C7.53778 5.59406 7.48483 5.88994 7.37549 6.16676C7.26615 6.44358 7.10261 6.69577 6.89448 6.90853C6.68635 7.1213 6.43782 7.29034 6.16347 7.40576C5.88913 7.52117 5.59449 7.58062 5.29686 7.58062C4.99922 7.58062 4.70458 7.52117 4.43024 7.40576C4.15589 7.29034 3.90736 7.1213 3.69923 6.90853C3.4911 6.69577 3.32756 6.44358 3.21822 6.16676C3.10888 5.88994 3.05593 5.59406 3.06248 5.2965C3.07534 4.71242 3.3164 4.15661 3.73402 3.74808C4.15165 3.33955 4.71264 3.11078 5.29686 3.11078C5.88107 3.11078 6.44206 3.33955 6.85969 3.74808C7.27731 4.15661 7.51837 4.71242 7.53123 5.2965Z" fill="white"/>
</svg>
