<svg width="18" height="18" viewBox="0 0 18 18" fill="none" xmlns="http://www.w3.org/2000/svg">
<path d="M14.6667 8.29167C14.4788 8.29167 14.2986 8.36629 14.1658 8.49913C14.033 8.63197 13.9583 8.81214 13.9583 9V13.25C13.9583 13.4379 13.8837 13.618 13.7509 13.7509C13.618 13.8837 13.4379 13.9583 13.25 13.9583H4.75C4.56214 13.9583 4.38197 13.8837 4.24913 13.7509C4.11629 13.618 4.04167 13.4379 4.04167 13.25V4.75C4.04167 4.56214 4.11629 4.38197 4.24913 4.24913C4.38197 4.11629 4.56214 4.04167 4.75 4.04167H9C9.18786 4.04167 9.36803 3.96704 9.50087 3.8342C9.63371 3.70136 9.70833 3.52119 9.70833 3.33333C9.70833 3.14547 9.63371 2.9653 9.50087 2.83247C9.36803 2.69963 9.18786 2.625 9 2.625H4.75C4.18641 2.625 3.64591 2.84888 3.2474 3.2474C2.84888 3.64591 2.625 4.18641 2.625 4.75V13.25C2.625 13.8136 2.84888 14.3541 3.2474 14.7526C3.64591 15.1511 4.18641 15.375 4.75 15.375H13.25C13.8136 15.375 14.3541 15.1511 14.7526 14.7526C15.1511 14.3541 15.375 13.8136 15.375 13.25V9C15.375 8.81214 15.3004 8.63197 15.1675 8.49913C15.0347 8.36629 14.8545 8.29167 14.6667 8.29167Z" fill="white"/>
<path d="M11.8334 4.04167H12.9525L8.49712 8.49C8.43073 8.55585 8.37803 8.63419 8.34207 8.72051C8.30611 8.80682 8.2876 8.89941 8.2876 8.99292C8.2876 9.08642 8.30611 9.17901 8.34207 9.26533C8.37803 9.35164 8.43073 9.42998 8.49712 9.49583C8.56297 9.56222 8.64131 9.61492 8.72763 9.65088C8.81395 9.68684 8.90653 9.70536 9.00004 9.70536C9.09355 9.70536 9.18613 9.68684 9.27245 9.65088C9.35876 9.61492 9.43711 9.56222 9.50295 9.49583L13.9584 5.0475V6.16667C13.9584 6.35453 14.033 6.5347 14.1658 6.66753C14.2987 6.80037 14.4788 6.875 14.6667 6.875C14.8546 6.875 15.0347 6.80037 15.1676 6.66753C15.3004 6.5347 15.375 6.35453 15.375 6.16667V3.33333C15.375 3.14547 15.3004 2.9653 15.1676 2.83247C15.0347 2.69963 14.8546 2.625 14.6667 2.625H11.8334C11.6455 2.625 11.4653 2.69963 11.3325 2.83247C11.1997 2.9653 11.125 3.14547 11.125 3.33333C11.125 3.52119 11.1997 3.70136 11.3325 3.8342C11.4653 3.96704 11.6455 4.04167 11.8334 4.04167Z" fill="white"/>
</svg>
