<svg width="604" height="204" viewBox="0 0 604 204" fill="none" xmlns="http://www.w3.org/2000/svg">
<path d="M303.683 99.5031C281.769 99.2268 264.467 115.607 263.748 136.465C263.006 157.911 280.958 176.271 302.177 175.868C323.454 176.133 340.571 159.441 340.837 138.146C341.104 117.311 324.23 99.7679 303.683 99.5031ZM297.808 128.223C297.785 133.898 297.877 139.573 297.634 145.237C297.367 151.223 293.079 155.148 286.926 155.424C280.842 155.7 275.777 152.063 275.372 146.181C274.897 139.113 275.256 131.987 275.256 124.931C277.689 124.839 280.181 124.862 280.181 124.862C280.181 124.862 280.135 126.52 280.146 128.776C280.169 133.772 280.088 138.768 280.239 143.752C280.355 147.815 282.928 150.279 286.613 150.21C290.136 150.141 292.535 147.7 292.651 143.729C292.801 138.629 292.732 133.518 292.767 128.408C292.778 127.245 292.778 124.678 292.778 124.678C292.778 124.678 294.157 124.643 295.397 124.643C296.545 124.655 297.854 124.609 297.854 124.609C297.854 124.609 297.808 127.153 297.808 128.223ZM321.437 149.312C320.881 150.67 320.302 151.867 319.548 153.398C318.957 154.607 318.795 154.86 318.795 154.86C318.795 154.86 317.972 154.814 316.987 154.814C315.643 154.814 314.762 154.791 314.762 154.791C314.762 154.791 314.473 154.146 314.171 153.433C310.254 144.063 306.175 134.048 302.374 124.597C305.932 124.471 307.832 124.367 307.832 124.367C307.832 124.367 308.597 126.266 309.269 128.051C311.738 134.612 314.206 141.162 316.941 148.425C319.664 141.277 322.341 134.877 324.497 128.292C325.018 126.692 325.83 124.148 325.83 124.148C325.83 124.148 328.611 124.148 331.613 124.148C328.263 132.436 324.717 141.265 321.437 149.312Z" fill="white"/>
<path d="M6.06934 142.127C6.06934 140.654 6.06934 139.365 6.06934 137.914C86.6931 137.914 167.05 137.914 247.628 137.914C247.628 139.342 247.628 140.631 247.628 142.127C167.236 142.127 86.867 142.127 6.06934 142.127Z" fill="white"/>
<path d="M245.38 32.8187C235.564 27.0055 225.053 26.4875 214.889 31.7711C203.277 37.803 198.016 50.4882 201.191 62.9663C204.297 75.1911 215.492 83.3985 229.051 83.3985C245.403 83.387 258.753 71.5651 258.846 56.6006C258.915 46.2982 254.292 38.1023 245.38 32.8187ZM240.848 76.7911C231.716 83.0417 218.32 80.797 212.282 71.5075C205.815 61.5504 205.78 51.1789 211.841 41.0146C216.013 34.0273 224.624 30.4359 232.516 31.8747C241.602 33.5323 248.752 40.1743 250.618 48.8076C251.012 50.6379 251.232 52.5142 251.406 53.9185C251.499 54.6437 251.533 55.3804 251.499 56.1172C251.116 65.1534 247.964 71.9219 240.848 76.7911Z" fill="white"/>
<path d="M594.958 82.2944C592.803 82.2944 590.891 82.2944 588.503 82.2944C588.503 73.5805 588.503 65.0162 588.503 56.1757C577.552 56.1757 567.076 56.1757 556.182 56.1757C556.182 64.763 556.182 73.3273 556.182 82.1678C553.783 82.1678 551.79 82.1678 549.507 82.1678C549.507 64.7054 549.507 47.1855 549.507 29.4584C551.558 29.4584 553.563 29.4584 555.973 29.4584C555.973 37.1133 555.973 44.6646 555.973 52.4346C566.89 52.4346 577.39 52.4346 588.306 52.4346C588.306 44.8833 588.306 37.332 588.306 29.5275C590.728 29.5275 592.722 29.5275 594.958 29.5275C594.958 46.9668 594.958 64.4177 594.958 82.2944Z" fill="white"/>
<path d="M429.191 29.4584C440.733 29.4584 451.94 29.4584 463.274 29.4584C463.274 30.7246 463.274 31.8182 463.274 33.1765C454.211 33.1765 445.311 33.1765 436.063 33.1765C436.063 39.7033 436.063 45.9653 436.063 52.6878C443.028 52.6878 449.981 52.7224 456.935 52.6648C458.939 52.6418 460.122 53.1022 459.322 55.7958C451.743 55.7958 444.013 55.7958 436.005 55.7958C436.005 63.4968 436.005 70.7833 436.005 78.4958C445.079 78.4958 454.072 78.4958 463.204 78.4958C463.204 79.9807 463.204 81.0512 463.204 82.2829C451.812 82.2829 440.617 82.2829 429.179 82.2829C429.191 64.6939 429.191 47.174 429.191 29.4584Z" fill="white"/>
<path d="M8.83911 69.469C10.589 69.469 11.9333 69.469 13.2892 69.469C16.5341 79.5757 28.6909 81.9585 35.9223 79.1728C39.1904 77.9181 41.5429 76.0648 42.0876 72.577C42.6902 68.7553 42.0297 65.0602 38.4487 62.9767C34.636 60.7551 30.464 59.132 26.4658 57.2211C22.8848 55.506 19.0026 54.1822 15.8388 51.8915C9.14042 47.0453 9.29108 37.4681 15.7808 32.2651C23.0007 26.4634 37.0349 27.3038 43.3044 34.0608C44.7067 35.5687 45.5643 37.5602 46.8622 39.6552C44.5329 39.7933 42.1803 39.8048 42.1803 39.8048C42.1803 39.8048 41.3111 38.6307 40.4767 37.353C39.5033 35.8565 37.9504 34.0723 36.2352 33.232C31.3679 30.8377 26.2688 30.9183 21.3319 33.232C18.4579 34.5788 16.6268 36.7429 16.4182 40.0696C16.2212 43.2927 17.6582 45.664 20.4164 47.0223C24.2987 48.9331 28.3316 50.5217 32.3066 52.2483C34.9257 53.3879 37.6607 54.3088 40.1523 55.6672C46.8622 59.3277 49.4234 64.0703 48.2413 71.023C47.1403 77.4922 42.6786 80.9686 36.5365 82.465C29.8961 84.0766 23.1977 84.0766 17.102 80.842C12.6287 78.4707 11.4234 76.4677 8.83911 69.469Z" fill="white"/>
<path d="M64.7671 82.1674C65.7521 82.5127 67.954 82.3516 67.954 82.3516C67.954 82.3516 68.4755 81.3962 68.9043 80.3026L64.7671 82.1674ZM112.2 82.6048C113.012 82.5127 113.973 82.3631 115.132 82.2019C114.043 82.3516 113.058 82.4897 112.2 82.6048ZM106.522 77.7011C107.287 79.3472 107.727 80.5904 108.249 81.3962C107.75 80.3141 107.09 78.8982 106.522 77.7011Z" fill="white"/>
<path d="M115.086 80.5679C107.368 64.1415 99.6728 47.6921 91.8387 31.3233C91.3983 30.3909 89.8802 29.493 88.8488 29.47C88.026 29.4585 86.8207 30.6442 86.3919 31.5766C83.9583 36.9407 81.6868 42.3855 79.3807 47.8072C74.5017 59.2493 69.646 70.7028 64.7671 82.1679L68.9043 80.3031C70.3066 76.7232 71.9522 73.3274 73.4008 69.6668C73.8296 68.5848 74.5945 66.6279 74.5945 66.6279C74.5945 66.6279 76.692 66.697 77.99 66.743C82.2199 66.9042 86.4962 66.6739 90.6914 66.6739C95.721 66.6739 99.047 66.6509 101.654 66.6509C101.654 66.6509 103.659 70.5532 105.757 75.8944C105.954 76.4124 106.197 76.9534 106.429 77.4714C106.464 77.5404 106.499 77.621 106.533 77.6901C107.101 78.8872 107.762 80.3146 108.26 81.3852C108.701 82.3406 109.013 83.0197 109.013 83.0197C109.013 83.0197 116.129 82.8701 116.256 82.8586C115.7 81.8111 115.306 81.0513 115.086 80.5679ZM76.159 63.4393C79.9022 54.783 83.4831 46.4489 87.4465 37.2861C91.7576 46.4489 95.663 54.7599 99.7539 63.4393H76.159Z" fill="white"/>
<path d="M529.562 39.8168C527.059 39.9089 524.509 39.9319 524.509 39.9319C524.509 39.9319 523.177 38.3089 522.435 37.3189C517.591 30.7115 504.032 29.6755 495.943 34.6253C486.127 40.6456 482.221 53.3884 486.648 64.9456C490.797 75.7775 501.795 81.8669 513.338 79.9791C518.947 79.0582 523.768 76.733 528.252 73.0034C528.913 73.6134 529.516 74.1775 530.153 74.7646C530.153 74.7646 530.153 74.7761 530.141 74.7761C529.724 75.4552 529.191 76.0538 528.565 76.5718C522.157 81.8209 514.543 83.467 506.338 83.3749C499.257 83.2943 492.663 81.6482 487.181 77.0322C478.293 69.55 476.207 59.662 478.362 48.9221C480.587 37.8139 488.224 31.5173 499.164 29.3072C507.914 27.546 516.78 27.6611 524.243 33.4972C526.618 35.2239 528.055 36.7779 529.562 39.8168Z" fill="white"/>
<path d="M410.22 29.5161C410.22 30.7939 410.22 31.7953 410.22 33.2342C403.452 33.2342 396.765 33.2342 389.789 33.2342C389.789 49.7297 389.789 65.8107 389.789 82.1565C387.413 82.1565 385.338 82.1565 382.94 82.1565C382.94 66.0294 382.94 49.9599 382.94 33.4414C375.963 33.4414 369.276 33.4414 362.381 33.4414C362.288 31.922 362.23 30.8399 362.161 29.5161C378.2 29.5161 394.053 29.5161 410.22 29.5161Z" fill="white"/>
<path d="M280.135 29.366C282.337 29.366 284.168 29.366 286.451 29.366C286.451 45.5737 286.451 61.7238 286.451 78.3573C295.977 78.3573 305.062 78.3573 314.403 78.3573C314.473 79.8883 314.531 80.9588 314.589 82.2366C303.034 82.2366 291.735 82.2366 280.135 82.2366C280.135 64.6821 280.135 47.1622 280.135 29.366Z" fill="white"/>
<path d="M393.462 124.483C384.771 124.448 377.991 131.182 378.003 139.804C378.026 148.138 384.886 154.976 393.312 155.045C401.656 155.114 408.922 147.92 408.899 139.609C408.875 131.436 401.818 124.518 393.462 124.483ZM393.37 150.602C387.39 150.59 382.383 145.686 382.337 139.804C382.302 133.98 387.309 128.88 393.184 128.777C399.21 128.662 404.309 133.715 404.333 139.804C404.356 145.663 399.338 150.613 393.37 150.602Z" fill="white"/>
<path d="M516.246 124.46C507.763 124.494 500.961 131.171 500.856 139.551C500.764 147.966 507.844 155.102 516.281 155.068C524.718 155.033 531.544 148.253 531.59 139.862C531.636 131.205 524.88 124.425 516.246 124.46ZM516.073 150.602C510.07 150.498 505.283 145.594 505.318 139.597C505.353 133.692 510.336 128.765 516.27 128.765C522.11 128.765 527.233 133.807 527.302 139.62C527.36 145.525 522.052 150.705 516.073 150.602Z" fill="white"/>
<path d="M432.389 125.219C433.861 125.219 434.985 125.219 436.631 125.219C436.631 130.146 436.596 135.096 436.654 140.057C436.677 141.864 436.7 143.706 437.083 145.456C437.848 148.909 440.328 150.693 443.769 150.578C446.933 150.474 449.436 148.529 449.958 145.225C450.352 142.785 450.201 140.253 450.225 137.755C450.259 133.668 450.236 129.593 450.236 125.3C451.604 125.3 452.809 125.3 454.246 125.3C454.246 132.46 454.686 139.712 454.095 146.872C453.666 152.028 448.417 155.355 443.028 155.021C436.874 154.653 432.621 150.843 432.436 145.03C432.227 138.572 432.389 132.103 432.389 125.219Z" fill="white"/>
<path d="M352.472 148.979C354.779 147.356 356.459 146.907 358.545 149.197C359.542 150.291 362.01 150.751 363.586 150.418C365.081 150.107 366.935 148.587 367.364 147.217C367.689 146.17 366.344 144.121 365.185 143.223C363.609 142.003 361.477 141.531 359.634 140.622C354.883 138.262 353.457 136.006 353.828 131.666C354.106 128.454 356.482 125.634 359.611 124.805C363.737 123.712 367.642 125.139 370.586 128.961C369.01 130.239 367.816 131.505 365.44 129.755C362.902 127.89 359.6 128.627 358.591 130.918C357.34 133.784 359.043 135.384 361.407 136.547C363.041 137.352 364.733 138.055 366.367 138.849C371.154 141.163 372.938 144.547 371.722 148.956C370.748 152.443 366.53 155.31 362.335 154.999C358.174 154.688 354.64 153.065 352.472 148.979Z" fill="white"/>
<path d="M418.124 100.239C419.491 100.239 420.511 100.239 421.855 100.239C421.855 118.15 421.855 135.992 421.855 154.111C420.731 154.111 419.549 154.111 418.124 154.111C418.124 136.257 418.124 118.415 418.124 100.239Z" fill="white"/>
<path d="M486.996 154.157C486.996 144.534 486.996 135.06 486.996 125.218C488.259 125.161 489.569 125.103 491.133 125.034C491.133 134.842 491.133 144.373 491.133 154.157C489.754 154.157 488.468 154.157 486.996 154.157Z" fill="white"/>
<path d="M329.248 65.0627C329.248 63.1058 329.248 61.4137 329.248 59.4913C335.529 59.4913 341.753 59.4913 348.173 59.4913C348.173 61.2756 348.173 63.0483 348.173 65.0627C342.019 65.0627 335.796 65.0627 329.248 65.0627Z" fill="white"/>
<path d="M183.831 58.9727V82.7201C181.409 82.7316 178.187 82.582 178.187 82.582L178.002 78.7948C170.515 82.8698 163.145 83.8022 155.716 83.1921C138.971 81.8107 129.607 68.7687 130.487 53.3092C131.38 37.5966 142.922 29.5733 157.304 28.5488C165.625 27.9618 173.586 29.1819 180.053 35.0526C181.502 36.3649 182.823 38.3563 184.271 40.152H179.659L177.376 37.6656C172.601 33.0382 162.878 30.6554 154.673 32.1748C144.985 33.9706 139.017 40.9808 137.974 51.9855C137.035 61.9541 138.797 71.3356 148.45 76.8034C157.455 81.9144 166.853 81.4424 175.962 76.6192C176.692 76.2279 177.411 75.0768 177.434 74.248C177.585 70.2996 177.504 66.3398 177.504 61.9771H169.183C169.171 61.3325 169.241 59.5483 169.252 59.1339C169.252 59.0763 169.252 59.0533 169.252 59.0533C170.597 58.9957 172.092 58.9612 173.668 58.9497H173.702C173.911 58.9497 174.131 58.9497 174.351 58.9497C177.504 58.9382 180.887 58.9727 183.831 58.9727Z" fill="white"/>
<path d="M489.07 120.489C490.632 120.489 491.898 119.231 491.898 117.68C491.898 116.129 490.632 114.871 489.07 114.871C487.509 114.871 486.243 116.129 486.243 117.68C486.243 119.231 487.509 120.489 489.07 120.489Z" fill="white"/>
<path d="M464.908 129.501H460.272V124.643H464.908V111.865H469.879V124.815H477.25V129.501H469.786L469.532 146.871C469.532 146.871 469.879 150.704 473.472 150.704H477.25V154.79C477.25 154.79 465.162 156.747 464.989 148.402L464.908 129.501Z" fill="white"/>
<path d="M539.841 154.997H544.535V132.481C544.535 132.481 551.998 123.284 558.36 132.481V154.997H562.799V132.101C562.799 132.101 560.991 126.61 555.104 125.056C553.261 124.573 551.326 124.596 549.472 125.033C547.803 125.436 545.578 126.196 544.813 127.451V124.722H539.841V154.997Z" fill="white"/>
<path d="M585.675 131.078L589.28 128.822C589.28 128.822 587.089 124.263 579.8 124.263C579.8 124.263 572.383 124.183 572.383 133.967C572.383 133.967 572.765 139.458 579.881 141.334C579.881 141.334 586.093 142.658 586.093 146.1C586.093 146.1 586.568 150.866 580.82 150.866C575.072 150.866 574.99 146.779 574.99 146.779L570.656 149.035C570.656 149.035 573.009 155.424 580.391 155.424C580.391 155.424 590.682 154.699 590.682 146.653C590.682 146.653 590.682 142.428 585.757 139.596C584.679 138.975 583.485 138.572 582.268 138.272C580.345 137.789 576.451 136.304 576.451 132.298C576.462 126.992 584.644 127.118 585.675 131.078Z" fill="white"/>
</svg>
