<svg width="219" height="65" viewBox="0 0 219 65" fill="none" xmlns="http://www.w3.org/2000/svg">
<path d="M110.504 31.7041C103.547 31.6161 98.0548 36.8353 97.8267 43.4813C97.5912 50.3143 103.29 56.1644 110.026 56.036C116.781 56.1204 122.214 50.8021 122.299 44.0168C122.384 37.3781 117.027 31.7885 110.504 31.7041ZM108.639 40.8552C108.632 42.6634 108.661 44.4716 108.584 46.2761C108.499 48.1833 107.138 49.434 105.185 49.5221C103.253 49.6101 101.645 48.4511 101.517 46.5769C101.366 44.3249 101.48 42.0545 101.48 39.8062C102.252 39.7768 103.043 39.7842 103.043 39.7842C103.043 39.7842 103.029 40.3123 103.032 41.0312C103.04 42.623 103.014 44.2148 103.062 45.803C103.099 47.0977 103.915 47.8826 105.085 47.8606C106.204 47.8386 106.965 47.061 107.002 45.7956C107.05 44.1708 107.028 42.5423 107.039 40.9138C107.042 40.5434 107.042 39.7255 107.042 39.7255C107.042 39.7255 107.48 39.7145 107.874 39.7145C108.238 39.7181 108.654 39.7035 108.654 39.7035C108.654 39.7035 108.639 40.5141 108.639 40.8552ZM116.14 47.5745C115.964 48.0073 115.78 48.3887 115.541 48.8765C115.353 49.2617 115.302 49.3423 115.302 49.3423C115.302 49.3423 115.04 49.3277 114.728 49.3277C114.301 49.3277 114.021 49.3203 114.021 49.3203C114.021 49.3203 113.929 49.1149 113.834 48.8875C112.59 45.902 111.295 42.711 110.089 39.6998C111.218 39.6595 111.821 39.6265 111.821 39.6265C111.821 39.6265 112.064 40.2316 112.278 40.8001C113.061 42.8908 113.845 44.9777 114.713 47.2921C115.578 45.0144 116.427 42.9751 117.112 40.8772C117.277 40.3673 117.535 39.5568 117.535 39.5568C117.535 39.5568 118.418 39.5568 119.371 39.5568C118.307 42.1976 117.182 45.0107 116.14 47.5745Z" fill="#4D398C"/>
<path d="M16.0255 45.2858C16.0255 44.8163 16.0255 44.4055 16.0255 43.9434C41.6198 43.9434 67.1296 43.9434 92.7093 43.9434C92.7093 44.3982 92.7093 44.809 92.7093 45.2858C67.1885 45.2858 41.675 45.2858 16.0255 45.2858Z" fill="#4D398C"/>
<path d="M91.9956 10.4568C88.8795 8.60455 85.5427 8.4395 82.3163 10.123C78.63 12.0449 76.9597 16.0868 77.9678 20.0626C78.9537 23.9578 82.5076 26.5729 86.8119 26.5729C92.0029 26.5692 96.2411 22.8024 96.2705 18.0344C96.2926 14.7517 94.8247 12.1403 91.9956 10.4568ZM90.5571 24.4676C87.6581 26.4592 83.4052 25.744 81.4885 22.7841C79.4357 19.6115 79.4246 16.3068 81.3487 13.0682C82.6731 10.8419 85.4066 9.69754 87.912 10.156C90.7962 10.6842 93.0661 12.8005 93.6585 15.5513C93.7835 16.1345 93.8534 16.7323 93.9086 17.1798C93.9381 17.4108 93.9491 17.6456 93.9381 17.8803C93.8167 20.7595 92.816 22.9161 90.5571 24.4676Z" fill="#4D398C"/>
<path d="M202.971 26.2208C202.287 26.2208 201.679 26.2208 200.922 26.2208C200.922 23.4443 200.922 20.7155 200.922 17.8987C197.445 17.8987 194.119 17.8987 190.661 17.8987C190.661 20.6348 190.661 23.3636 190.661 26.1805C189.9 26.1805 189.267 26.1805 188.542 26.1805C188.542 20.6165 188.542 15.0341 188.542 9.3858C189.193 9.3858 189.83 9.3858 190.595 9.3858C190.595 11.8249 190.595 14.2309 190.595 16.7066C194.06 16.7066 197.394 16.7066 200.859 16.7066C200.859 14.3006 200.859 11.8945 200.859 9.40781C201.628 9.40781 202.261 9.40781 202.971 9.40781C202.971 14.9645 202.971 20.5248 202.971 26.2208Z" fill="#4D398C"/>
<path d="M150.347 9.3858C154.011 9.3858 157.569 9.3858 161.167 9.3858C161.167 9.78926 161.167 10.1377 161.167 10.5705C158.29 10.5705 155.465 10.5705 152.529 10.5705C152.529 12.6501 152.529 14.6454 152.529 16.7873C154.74 16.7873 156.947 16.7983 159.155 16.78C159.791 16.7727 160.166 16.9194 159.912 17.7776C157.506 17.7776 155.053 17.7776 152.51 17.7776C152.51 20.2314 152.51 22.5531 152.51 25.0105C155.391 25.0105 158.246 25.0105 161.145 25.0105C161.145 25.4836 161.145 25.8247 161.145 26.2171C157.529 26.2171 153.975 26.2171 150.344 26.2171C150.347 20.6128 150.347 15.0305 150.347 9.3858Z" fill="#4D398C"/>
<path d="M16.9047 22.1349C17.4602 22.1349 17.887 22.1349 18.3174 22.1349C19.3475 25.3552 23.2067 26.1144 25.5024 25.2268C26.5399 24.8271 27.2867 24.2365 27.4596 23.1252C27.6509 21.9075 27.4412 20.7302 26.3044 20.0663C25.094 19.3584 23.7696 18.8413 22.5004 18.2324C21.3636 17.6859 20.1312 17.2641 19.1268 16.5343C17.0004 14.9901 17.0482 11.9386 19.1084 10.2807C21.4004 8.43217 25.8556 8.69992 27.8459 10.8529C28.291 11.3334 28.5633 11.9679 28.9753 12.6354C28.2359 12.6794 27.489 12.6831 27.489 12.6831C27.489 12.6831 27.2131 12.309 26.9482 11.9019C26.6392 11.4251 26.1462 10.8566 25.6017 10.5888C24.0566 9.82592 22.4379 9.8516 20.8706 10.5888C19.9582 11.0179 19.377 11.7075 19.3108 12.7675C19.2482 13.7944 19.7044 14.55 20.58 14.9828C21.8124 15.5916 23.0927 16.0978 24.3546 16.648C25.186 17.0111 26.0542 17.3045 26.8452 17.7373C28.9753 18.9036 29.7884 20.4147 29.4131 22.6301C29.0636 24.6913 27.6472 25.799 25.6974 26.2758C23.5894 26.7893 21.4629 26.7893 19.5278 25.7587C18.1077 25.0031 17.7251 24.3649 16.9047 22.1349Z" fill="#4D398C"/>
<path d="M34.6593 26.1804C34.972 26.2905 35.671 26.2391 35.671 26.2391C35.671 26.2391 35.8366 25.9347 35.9727 25.5863L34.6593 26.1804ZM49.7172 26.3198C49.9747 26.2905 50.2801 26.2428 50.648 26.1914C50.3022 26.2391 49.9894 26.2831 49.7172 26.3198ZM47.9145 24.7574C48.1573 25.2818 48.2971 25.678 48.4627 25.9347C48.3045 25.5899 48.0948 25.1388 47.9145 24.7574Z" fill="#4D398C"/>
<path d="M50.6333 25.6706C48.1831 20.4367 45.7403 15.1955 43.2533 9.97994C43.1135 9.68285 42.6316 9.39677 42.3041 9.38943C42.0429 9.38576 41.6603 9.76354 41.5242 10.0606C40.7516 11.7698 40.0306 13.5047 39.2984 15.2322C37.7496 18.8779 36.2081 22.5273 34.6593 26.1804L35.9727 25.5862C36.4178 24.4456 36.9402 23.3636 37.4001 22.1972C37.5362 21.8525 37.779 21.229 37.779 21.229C37.779 21.229 38.4449 21.251 38.857 21.2656C40.1998 21.317 41.5573 21.2436 42.8891 21.2436C44.4858 21.2436 45.5416 21.2363 46.3694 21.2363C46.3694 21.2363 47.0058 22.4797 47.6717 24.1815C47.7343 24.3465 47.8115 24.5189 47.8851 24.684C47.8961 24.706 47.9072 24.7317 47.9182 24.7537C48.0985 25.1351 48.3082 25.5899 48.4664 25.931C48.6062 26.2354 48.7055 26.4518 48.7055 26.4518C48.7055 26.4518 50.9644 26.4042 51.0048 26.4005C50.8282 26.0667 50.7032 25.8246 50.6333 25.6706ZM38.2757 20.213C39.464 17.4548 40.6008 14.7994 41.859 11.8798C43.2276 14.7994 44.4674 17.4475 45.766 20.213H38.2757Z" fill="#4D398C"/>
<path d="M182.211 12.6868C181.416 12.7161 180.607 12.7234 180.607 12.7234C180.607 12.7234 180.183 12.2063 179.948 11.8909C178.41 9.78556 174.106 9.45546 171.538 11.0326C168.422 12.9508 167.182 17.011 168.587 20.6935C169.905 24.1448 173.396 26.0851 177.06 25.4836C178.841 25.1901 180.371 24.4493 181.795 23.2609C182.005 23.4553 182.196 23.635 182.398 23.8221C182.398 23.8221 182.398 23.8257 182.395 23.8257C182.262 24.0421 182.093 24.2329 181.894 24.3979C179.86 26.0704 177.443 26.5949 174.838 26.5655C172.59 26.5399 170.497 26.0154 168.757 24.5446C165.935 22.1606 165.273 19.01 165.957 15.588C166.663 12.0486 169.088 10.0423 172.561 9.33809C175.338 8.77692 178.153 8.8136 180.522 10.6732C181.276 11.2233 181.732 11.7185 182.211 12.6868Z" fill="#4D398C"/>
<path d="M144.325 9.40411C144.325 9.81123 144.325 10.1303 144.325 10.5888C142.176 10.5888 140.054 10.5888 137.839 10.5888C137.839 15.8447 137.839 20.9686 137.839 26.1768C137.085 26.1768 136.426 26.1768 135.665 26.1768C135.665 21.0382 135.665 15.9181 135.665 10.6548C133.45 10.6548 131.327 10.6548 129.138 10.6548C129.109 10.1707 129.09 9.82591 129.068 9.40411C134.16 9.40411 139.193 9.40411 144.325 9.40411Z" fill="#4D398C"/>
<path d="M103.029 9.35645C103.728 9.35645 104.309 9.35645 105.034 9.35645C105.034 14.5206 105.034 19.6665 105.034 24.9664C108.058 24.9664 110.942 24.9664 113.907 24.9664C113.929 25.4542 113.948 25.7953 113.966 26.2025C110.298 26.2025 106.711 26.2025 103.029 26.2025C103.029 20.6091 103.029 15.0268 103.029 9.35645Z" fill="#4D398C"/>
<path d="M139.005 39.6631C136.246 39.6521 134.094 41.7978 134.097 44.5449C134.105 47.2004 136.283 49.379 138.957 49.401C141.606 49.423 143.913 47.1307 143.905 44.4826C143.898 41.8785 141.658 39.6741 139.005 39.6631ZM138.976 47.9853C137.077 47.9816 135.488 46.4191 135.473 44.5449C135.462 42.689 137.052 41.0642 138.917 41.0312C140.83 40.9945 142.449 42.6047 142.456 44.5449C142.463 46.4118 140.87 47.9889 138.976 47.9853Z" fill="#4D398C"/>
<path d="M177.983 39.6558C175.29 39.6668 173.131 41.7941 173.098 44.4642C173.068 47.1453 175.316 49.4193 177.994 49.4083C180.673 49.3973 182.84 47.237 182.854 44.5632C182.869 41.8051 180.724 39.6448 177.983 39.6558ZM177.928 47.9853C176.023 47.9522 174.503 46.3898 174.514 44.4789C174.525 42.5973 176.107 41.0275 177.991 41.0275C179.845 41.0275 181.471 42.634 181.493 44.4862C181.512 46.3678 179.827 48.0183 177.928 47.9853Z" fill="#4D398C"/>
<path d="M151.363 39.8979C151.83 39.8979 152.187 39.8979 152.709 39.8979C152.709 41.4677 152.698 43.0448 152.716 44.6256C152.724 45.2014 152.731 45.7883 152.853 46.3458C153.095 47.4461 153.883 48.0146 154.975 47.9779C155.98 47.9449 156.774 47.3251 156.94 46.2724C157.065 45.4949 157.017 44.6879 157.025 43.892C157.036 42.59 157.028 41.2916 157.028 39.9235C157.462 39.9235 157.845 39.9235 158.301 39.9235C158.301 42.2049 158.441 44.5156 158.253 46.7969C158.117 48.4401 156.451 49.5 154.74 49.3937C152.786 49.2763 151.436 48.0623 151.377 46.2101C151.311 44.1525 151.363 42.0912 151.363 39.8979Z" fill="#4D398C"/>
<path d="M125.993 47.4681C126.725 46.951 127.258 46.8079 127.92 47.5378C128.237 47.8862 129.02 48.0329 129.521 47.9266C129.995 47.8275 130.584 47.3434 130.72 46.9069C130.823 46.5732 130.396 45.9203 130.028 45.6342C129.528 45.2454 128.851 45.0951 128.266 44.8053C126.758 44.0534 126.305 43.3345 126.423 41.9518C126.511 40.9285 127.266 40.0299 128.259 39.7658C129.569 39.4174 130.808 39.8722 131.743 41.0899C131.243 41.497 130.864 41.9005 130.109 41.343C129.304 40.7488 128.255 40.9835 127.935 41.7134C127.538 42.6267 128.079 43.1365 128.829 43.5069C129.348 43.7637 129.885 43.9874 130.404 44.2405C131.923 44.9777 132.49 46.056 132.103 47.4608C131.794 48.5721 130.455 49.4854 129.123 49.3863C127.803 49.2873 126.681 48.7702 125.993 47.4681Z" fill="#4D398C"/>
<path d="M146.834 31.9388C147.268 31.9388 147.592 31.9388 148.018 31.9388C148.018 37.6458 148.018 43.3309 148.018 49.1039C147.662 49.1039 147.286 49.1039 146.834 49.1039C146.834 43.4152 146.834 37.7302 146.834 31.9388Z" fill="#4D398C"/>
<path d="M168.698 49.1186C168.698 46.0524 168.698 43.0338 168.698 39.8979C169.099 39.8795 169.515 39.8612 170.011 39.8392C170.011 42.9641 170.011 46.001 170.011 49.1186C169.573 49.1186 169.165 49.1186 168.698 49.1186Z" fill="#4D398C"/>
<path d="M118.62 20.7302C118.62 20.1066 118.62 19.5675 118.62 18.955C120.614 18.955 122.59 18.955 124.628 18.955C124.628 19.5235 124.628 20.0883 124.628 20.7302C122.674 20.7302 120.699 20.7302 118.62 20.7302Z" fill="#4D398C"/>
<path d="M72.4567 18.7899V26.3565C71.6878 26.3601 70.6651 26.3125 70.6651 26.3125L70.6062 25.1058C68.2296 26.4041 65.8898 26.7012 63.5316 26.5068C58.2155 26.0667 55.243 21.9111 55.5226 16.9853C55.8058 11.9789 59.4701 9.42243 64.0356 9.096C66.6771 8.90894 69.2045 9.29773 71.2574 11.1683C71.7173 11.5864 72.1367 12.2209 72.5965 12.7931H71.1323L70.4076 12.0009C68.8918 10.5264 65.8052 9.7672 63.2005 10.2513C60.1249 10.8235 58.2303 13.0572 57.8992 16.5636C57.6012 19.7398 58.1604 22.7291 61.2249 24.4712C64.0835 26.0997 67.0671 25.9493 69.9587 24.4126C70.1905 24.2878 70.4186 23.9211 70.4259 23.657C70.4738 22.399 70.448 21.1372 70.448 19.7472H67.8065C67.8029 19.5418 67.8249 18.9733 67.8286 18.8412C67.8286 18.8229 67.8286 18.8156 67.8286 18.8156C68.2554 18.7972 68.73 18.7862 69.2303 18.7825H69.2413C69.3076 18.7825 69.3774 18.7825 69.4473 18.7825C70.448 18.7789 71.5223 18.7899 72.4567 18.7899Z" fill="#4D398C"/>
<path d="M169.356 38.3904C169.852 38.3904 170.254 37.9897 170.254 37.4955C170.254 37.0012 169.852 36.6005 169.356 36.6005C168.861 36.6005 168.459 37.0012 168.459 37.4955C168.459 37.9897 168.861 38.3904 169.356 38.3904Z" fill="#4D398C"/>
<path d="M161.686 41.2623H160.214V39.7145H161.686V35.6432H163.264V39.7695H165.604V41.2623H163.235L163.154 46.7969C163.154 46.7969 163.264 48.0183 164.404 48.0183H165.604V49.3203C165.604 49.3203 161.767 49.9438 161.712 47.2847L161.686 41.2623Z" fill="#4D398C"/>
<path d="M185.474 49.3864H186.964V42.2122C186.964 42.2122 189.333 39.2817 191.353 42.2122V49.3864H192.762V42.0912C192.762 42.0912 192.188 40.3417 190.319 39.8465C189.734 39.6925 189.12 39.6998 188.531 39.8392C188.001 39.9676 187.295 40.2096 187.052 40.6094V39.7402H185.474V49.3864Z" fill="#4D398C"/>
<path d="M200.024 41.7647L201.168 41.0459C201.168 41.0459 200.473 39.5934 198.159 39.5934C198.159 39.5934 195.804 39.5677 195.804 42.6853C195.804 42.6853 195.926 44.4349 198.185 45.0327C198.185 45.0327 200.156 45.4545 200.156 46.5512C200.156 46.5512 200.307 48.0696 198.483 48.0696C196.658 48.0696 196.632 46.7676 196.632 46.7676L195.256 47.4864C195.256 47.4864 196.003 49.522 198.346 49.522C198.346 49.522 201.613 49.291 201.613 46.7272C201.613 46.7272 201.613 45.3811 200.05 44.4789C199.708 44.2808 199.329 44.1524 198.942 44.0571C198.332 43.903 197.096 43.4299 197.096 42.1535C197.099 40.4627 199.697 40.503 200.024 41.7647Z" fill="#4D398C"/>
</svg>
