<svg width="24" height="24" viewBox="0 0 24 24" fill="none" xmlns="http://www.w3.org/2000/svg">
<path d="M21.4286 0.0683594H2.57143C1.15179 0.0683594 0 1.2136 0 2.62518V21.3752C0 22.7868 1.15179 23.932 2.57143 23.932H21.4286C22.8482 23.932 24 22.7868 24 21.3752V2.62518C24 1.2136 22.8482 0.0683594 21.4286 0.0683594ZM18.8089 8.52717C18.8196 8.67631 18.8196 8.83079 18.8196 8.97994C18.8196 13.5982 15.2839 18.9196 8.82321 18.9196C6.83036 18.9196 4.98214 18.3443 3.42857 17.3535C3.7125 17.3855 3.98571 17.3961 4.275 17.3961C5.91964 17.3961 7.43036 16.8421 8.63571 15.9047C7.09286 15.8727 5.79643 14.8659 5.35179 13.481C5.89286 13.5609 6.38036 13.5609 6.9375 13.4171C5.33036 13.0922 4.125 11.6859 4.125 9.98668V9.94407C4.59107 10.2051 5.1375 10.3649 5.71071 10.3862C5.2288 10.0675 4.83374 9.63505 4.56079 9.12757C4.28784 8.62008 4.14548 8.0533 4.14643 7.47781C4.14643 6.82795 4.31786 6.23136 4.62321 5.71467C6.35357 7.83469 8.95179 9.21964 11.8661 9.36879C11.3679 6.9984 13.1518 5.07546 15.2946 5.07546C16.3071 5.07546 17.2179 5.49627 17.8607 6.17809C18.6536 6.02894 19.4143 5.73597 20.0893 5.33647C19.8268 6.14613 19.275 6.82795 18.5464 7.25941C19.2536 7.18484 19.9393 6.98775 20.5714 6.71609C20.0946 7.41388 19.4946 8.03178 18.8089 8.52717Z" fill="white"/>
</svg>
